General
Complete name                            : Bigg Boss Grand Finale 7.01.12\\Bigg Boss Finale.avi
Format                                   : AVI
Format/Info                              : Audio Video Interleave
File size                                : 1.74 GiB
Duration                                 : 2h 8mn
Overall bit rate                         : 1 938 Kbps
Writing library                          : Boilsoft AVI tool build 1/release

Video
ID                                       : 0
Format                                   : MPEG-4 Visual
Format profile                           : Advanced Simple@L5
Format settings, BVOP                    : No
Format settings, QPel                    : No
Format settings, GMC                     : No warppoints
Format settings, Matrix                  : Default (H.263)
Codec ID                                 : XVID
Codec ID/Hint                            : XviD
Duration                                 : 2h 8mn
Bit rate                                 : 1 800 Kbps
Width                                    : 1 280 pixels
Height                                   : 720 pixels
Display aspect ratio                     : 16:9
Frame rate                               : 25.000 fps
Color space                              : YUV
Chroma subsampling                       : 4:2:0
Bit depth                                : 8 bits
Scan type                                : Progressive
Compression mode                         : Lossy
Bits/(Pixel*Frame)                       : 0.078
Stream size                              : 1.61 GiB (93%)
Writing library                          : XviD 62

Audio
ID                                       : 1
Format                                   : MPEG Audio
Format version                           : Version 1
Format profile                           : Layer 3
Codec ID                                 : 55
Codec ID/Hint                            : MP3
Duration                                 : 2h 8mn
Bit rate mode                            : Constant
Bit rate                                 : 128 Kbps
Channel(s)                               : 2 channels
Sampling rate                            : 48.0 KHz
Compression mode                         : Lossy
Stream size                              : 118 MiB (7%)
Alignment                                : Split accross interleaves
Interleave, duration                     : 40 ms (1.00 video frame)
Interleave, preload duration             : 500 ms

ScreenShots:  
http://i1126.photobucket.com/albums/l610/arsenal40/1-30.jpg